<svg width="24" height="24" viewBox="0 0 24 24" fill="none" xmlns="http://www.w3.org/2000/svg">
<g clip-path="url(#clip0_47459_1878)">
<path d="M21.0179 20.901C20.935 20.4833 20.5243 20.0493 20.1001 19.9157C19.8428 19.836 14.8346 19.5041 12.0006 19.5078C9.16652 19.5041 4.15839 19.836 3.90105 19.9157C3.4773 20.0488 3.06667 20.4833 2.98324 20.901C2.93636 21.156 2.89511 21.4972 2.92324 21.9552C2.95324 22.4136 3.03621 22.7469 3.11261 22.9939C3.24527 23.398 3.68964 23.7805 4.10777 23.87C4.36511 23.9249 9.29355 23.9994 12.0006 24.0003C14.7076 23.9989 19.636 23.9244 19.8934 23.87C20.311 23.7805 20.7554 23.398 20.8885 22.9939C20.965 22.7469 21.0479 22.4132 21.0779 21.9552C21.1056 21.4967 21.0643 21.1555 21.0179 20.901Z" fill="#9E2A12"/>
<path d="M13 2.64094V0.997031C13 0.446386 12.5536 0 12.003 0C11.4523 0 11.0059 0.446386 11.0059 0.997031V2.64094C11.0059 3.19158 11.4523 3.63797 12.003 3.63797C12.5536 3.63797 13 3.19158 13 2.64094Z" fill="#9E2A12"/>
<path d="M5.95336 4.73266L4.79095 3.57024C4.40158 3.18088 3.77029 3.18088 3.38093 3.57024C2.99157 3.95961 2.99157 4.59089 3.38093 4.98026L4.54335 6.14267C4.93271 6.53204 5.564 6.53204 5.95336 6.14267C6.34273 5.75331 6.34273 5.12202 5.95336 4.73266Z" fill="#9E2A12"/>
<path d="M19.4646 6.14282L20.627 4.9804C21.0164 4.59103 21.0164 3.95975 20.627 3.57038C20.2377 3.18102 19.6064 3.18102 19.217 3.57038L18.0546 4.7328C17.6652 5.12217 17.6652 5.75345 18.0546 6.14282C18.444 6.53218 19.0752 6.53218 19.4646 6.14282Z" fill="#9E2A12"/>
<path d="M21.3591 13.1924H23.003C23.5536 13.1924 24 12.746 24 12.1954C24 11.6447 23.5536 11.1983 23.003 11.1983H21.3591C20.8084 11.1983 20.362 11.6447 20.362 12.1954C20.362 12.746 20.8084 13.1924 21.3591 13.1924Z" fill="#9E2A12"/>
<path d="M0.999687 13.1924H2.64359C3.19424 13.1924 3.64062 12.746 3.64062 12.1954C3.64062 11.6447 3.19424 11.1983 2.64359 11.1983H0.999687C0.449042 11.1983 0.00265622 11.6447 0.00265622 12.1954C0.00265622 12.746 0.449042 13.1924 0.999687 13.1924Z" fill="#9E2A12"/>
<path d="M12.0024 19.507C14.0658 19.5042 17.2819 19.6795 18.9774 19.8056C19.0688 17.6118 19.0617 14.0793 19.0435 11.9306C18.9849 8.17309 15.7078 5.13137 12.0019 5.13184C8.29643 5.13184 5.01893 8.17309 4.96033 11.9306C4.94252 14.0793 4.93502 17.6114 5.02643 19.8051C6.7219 19.679 9.93799 19.5037 12.0014 19.5065L12.0024 19.507Z" fill="#9E2A12"/>
<path d="M18.2894 8.97652C17.1034 6.70027 14.6631 5.13184 12.002 5.13184C8.29654 5.13184 5.01904 8.17309 4.96045 11.9306C4.94498 13.7667 4.93748 16.6129 4.99279 18.7715C5.2117 18.7823 5.43154 18.7884 5.65326 18.7884C11.7404 18.7884 16.8536 14.617 18.2894 8.97652Z" fill="#9E2A12"/>
<path d="M7.2471 10.1569C7.63569 8.83128 8.72131 7.78643 10.0802 7.43065C10.556 7.30596 11.0426 7.59096 11.1673 8.06674C11.2919 8.54253 11.0069 9.02956 10.5312 9.15378C9.78491 9.34924 9.16663 9.9394 8.95616 10.6575C8.84225 11.0461 8.48694 11.2978 8.1021 11.2978C8.01913 11.2978 7.93475 11.2861 7.85132 11.2617C7.37928 11.1235 7.10882 10.6285 7.2471 10.1564V10.1569Z" fill="white"/>
</g>
<defs>
<clipPath id="clip0_47459_1878">
<rect width="24" height="24" fill="white"/>
</clipPath>
</defs>
</svg>
