<svg width="56" height="36" viewBox="0 0 56 36" fill="none" xmlns="http://www.w3.org/2000/svg">
<path d="M38 16.5L28.8825 8.82207C28.6355 8.61407 28.3229 8.5 28 8.5C27.6771 8.5 27.3645 8.61407 27.1175 8.82207L18 16.5" stroke="#636F85" stroke-width="1.5" stroke-linecap="round" stroke-linejoin="round"/>
<path d="M36.5 15.5V22C36.5 24.3456 36.5 25.5184 35.8801 26.3263C35.7205 26.5343 35.5343 26.7205 35.3263 26.8801C34.5184 27.5 33.3456 27.5 31 27.5V23C31 21.5858 31 20.8787 30.5607 20.4393C30.1213 20 29.4142 20 28 20C26.5858 20 25.8787 20 25.4393 20.4393C25 20.8787 25 21.5858 25 23V27.5C22.6544 27.5 21.4816 27.5 20.6737 26.8801C20.4657 26.7205 20.2795 26.5343 20.1199 26.3263C19.5 25.5184 19.5 24.3456 19.5 22V15.5" stroke="#636F85" stroke-width="1.5" stroke-linecap="round" stroke-linejoin="round"/>
</svg>
