<svg width="17" height="18" viewBox="0 0 17 18" fill="none" xmlns="http://www.w3.org/2000/svg">
<path d="M10.6074 14.4447C9.91325 14.5062 9.21053 14.5385 8.50044 14.5385C7.79012 14.5385 7.08696 14.5062 6.39258 14.4447C6.39118 14.4758 6.38983 14.507 6.38983 14.5385C6.38983 15.6855 7.33478 16.6154 8.50044 16.6154C9.66611 16.6154 10.6111 15.6855 10.6111 14.5385C10.6111 14.507 10.6088 14.4758 10.6074 14.4447ZM16.8192 12.018C16.9754 12.1886 17.0353 12.4244 16.9796 12.6472C16.9237 12.8701 16.7595 13.0517 16.5408 13.1313L16.2971 12.4814L16.8192 12.018ZM13.4252 6.23077C13.4252 3.55431 11.2203 1.38462 8.50044 1.38462C5.78057 1.38462 3.57567 3.55431 3.57567 6.23077V6.92308C3.57567 8.8696 2.94407 10.6708 1.87637 12.1433C3.1706 12.5489 4.5165 12.8414 5.9034 13.0033C6.75467 13.1027 7.62144 13.1538 8.50044 13.1538C9.3795 13.1538 10.2462 13.1027 11.0975 13.0033C12.4837 12.8415 13.8291 12.5495 15.1227 12.1442C14.055 10.6718 13.4252 8.86957 13.4252 6.92308V6.23077ZM14.8323 6.92308C14.8323 8.88276 15.5835 10.6681 16.8192 12.018L16.2962 12.4805L16.5408 13.1313C15.0921 13.6576 13.5749 14.0441 12.0071 14.2779C12.0137 14.364 12.0181 14.4509 12.0181 14.5385C12.0181 16.4502 10.4432 18 8.50044 18C6.55768 18 4.98275 16.4502 4.98275 14.5385C4.98275 14.4512 4.98634 14.3646 4.99283 14.2788C3.42519 14.045 1.90867 13.6575 0.460128 13.1313C0.241222 13.0518 0.076319 12.8702 0.020416 12.6472C-0.0353102 12.4244 0.0246398 12.1885 0.180728 12.018C1.33945 10.7524 2.07241 9.1042 2.15943 7.28816L2.16859 6.92308V6.23077C2.16859 2.78961 5.00346 0 8.50044 0C11.9974 0 14.8323 2.78961 14.8323 6.23077V6.92308Z" fill="#334155"/>
</svg>
