<svg width="56" height="36" viewBox="0 0 56 36" fill="none" xmlns="http://www.w3.org/2000/svg">
<path d="M36 17L38 18C38 12.4771 33.5228 8 28 8C23.8994 8 20.3752 10.4682 18.8321 14M20 19L18 18C18 23.5228 22.4771 28 28 28C32.1006 28 35.6248 25.5318 37.1679 22" stroke="#636F85" stroke-width="1.5" stroke-linecap="round" stroke-linejoin="round"/>
<path d="M28 17.5H28.009" stroke="#636F85" stroke-width="2" stroke-linecap="round" stroke-linejoin="round"/>
<path d="M28 13C30.4353 13 32.5 15.0165 32.5 17.4629C32.5 19.9482 30.4017 21.6924 28.4635 22.8783C28.3223 22.9581 28.1625 23 28 23C27.8375 23 27.6777 22.9581 27.5365 22.8783C25.6019 21.6808 23.5 19.9568 23.5 17.4629C23.5 15.0165 25.5647 13 28 13Z" stroke="#636F85" stroke-width="1.5"/>
</svg>
