<svg width="56" height="36" viewBox="0 0 56 36" fill="none" xmlns="http://www.w3.org/2000/svg">
<path d="M31.5 16.5C31.5 14.567 29.933 13 28 13C26.067 13 24.5 14.567 24.5 16.5C24.5 18.433 26.067 20 28 20C29.933 20 31.5 18.433 31.5 16.5Z" stroke="#636F85" stroke-width="1.5" stroke-linecap="round" stroke-linejoin="round"/>
<path d="M38 18C38 12.4771 33.5228 8 28 8C22.4771 8 18 12.4771 18 18C18 23.5228 22.4771 28 28 28C33.5228 28 38 23.5228 38 18Z" stroke="#636F85" stroke-width="1.5" stroke-linecap="round" stroke-linejoin="round"/>
<path d="M34 26C34 22.6863 31.3137 20 28 20C24.6863 20 22 22.6863 22 26" stroke="#636F85" stroke-width="1.5" stroke-linecap="round" stroke-linejoin="round"/>
</svg>
