
<svg width="21" height="24" viewBox="0 0 21 24" fill="none" xmlns="http://www.w3.org/2000/svg">
<path d="M16.125 10.125H15C14.7928 10.125 14.625 10.2928 14.625 10.5V11.4375H16.125C17.6784 11.4375 18.9375 12.6966 18.9375 14.25V15.5625C18.9375 17.1159 17.6784 18.375 16.125 18.375H14.625V19.3125C14.625 19.5197 14.7928 19.6875 15 19.6875H16.125C18.3994 19.6875 20.25 17.8369 20.25 15.5625V14.25C20.25 11.9756 18.3994 10.125 16.125 10.125Z" fill="#EE3939"/>
<path d="M11.0625 24H4.3125C3.58875 24 3 23.4112 3 22.6875V22.3125C3 22.1053 3.16781 21.9375 3.375 21.9375H12C12.2072 21.9375 12.375 22.1053 12.375 22.3125V22.6875C12.375 23.4112 11.7862 24 11.0625 24Z" fill="#1A2733"/>
<path d="M5.0048 7.68705C4.85292 7.68705 4.71324 7.59424 4.65605 7.44986C4.62515 7.37152 4.62148 7.28507 4.64562 7.2044C4.66977 7.12372 4.72032 7.0535 4.78917 7.00502C5.59542 6.43877 5.65027 5.72908 5.61089 5.35642C5.54995 4.77986 5.36245 4.50517 4.96449 4.10861C4.49995 3.64549 4.23605 2.83314 4.29277 2.03861C4.31949 1.66549 4.54449 0.416267 6.33089 0.00845421C6.47433 -0.0243583 6.62386 0.0300167 6.71292 0.147204C6.80199 0.264392 6.81417 0.422829 6.74433 0.552673C6.6248 0.77486 6.32152 1.45783 6.35386 1.94299C6.38949 2.47502 6.69605 2.79377 7.02042 3.13127C7.04574 3.15752 7.07058 3.1833 7.09495 3.20908C8.0512 4.21314 7.82058 5.51908 7.33261 6.33236C6.66558 7.44424 5.12292 7.67345 5.0573 7.68283C5.03995 7.68564 5.02261 7.68705 5.0048 7.68705ZM9.02995 7.68705C8.87808 7.68705 8.73839 7.59424 8.6812 7.44986C8.65031 7.37152 8.64664 7.28507 8.67078 7.2044C8.69492 7.12372 8.74548 7.0535 8.81433 7.00502C9.34073 6.63564 9.37683 6.1772 9.35152 5.93674C9.31167 5.55845 9.19308 5.38549 8.92449 5.11783C8.57339 4.76814 8.37417 4.1583 8.41636 3.56486C8.43652 3.28127 8.6062 2.33252 9.94589 2.02642C10.0893 1.99361 10.2389 2.04799 10.3279 2.16517C10.417 2.28236 10.4292 2.4408 10.3593 2.57064C10.2787 2.72064 10.0743 3.18002 10.0954 3.49736C10.1179 3.83486 10.3125 4.03736 10.5379 4.27174L10.5914 4.32752C11.3118 5.08361 11.1403 6.06424 10.7742 6.67361C10.2745 7.50611 9.13073 7.67627 9.08245 7.68283C9.06464 7.68564 9.0473 7.68705 9.02995 7.68705Z" fill="#D5DADD"/>
<path d="M14.0625 8.43066H1.3125C0.58875 8.43066 0 9.01941 0 9.74316V17.2432C0 18.3935 0.326719 19.5114 0.944531 20.4761C1.46751 21.2928 2.18007 21.9709 3.02156 22.4529H12.353C13.1945 21.9709 13.907 21.2928 14.43 20.4761C15.0483 19.5114 15.375 18.3935 15.375 17.2432V9.74316C15.375 9.01941 14.7862 8.43066 14.0625 8.43066Z" fill="#EE3939"/>
<path d="M15.2684 18.375C15.1836 18.8184 15.0495 19.2497 14.8672 19.6627C14.9089 19.6786 14.9539 19.6875 15.0008 19.6875H15.3252C15.5127 19.2675 15.6505 18.8273 15.7372 18.375H15.2684ZM15.3762 10.125H15.845V11.4375H15.3762V10.125Z" fill="#D33535"/>
</svg>
